<svg xmlns="http://www.w3.org/2000/svg" width="20" height="20" viewBox="0 0 20 20">
  <g id="Group_2" data-name="Group 2" transform="translate(-3570 -6066)">
    <rect id="Rectangle_1" data-name="Rectangle 1" width="20" height="20" transform="translate(3570 6066)" fill="none"/>
    <path id="Shape" d="M16,18H2a2,2,0,0,1-2-2V3.5A2.076,2.076,0,0,1,.5,2.2L1.8.5A1.662,1.662,0,0,1,3,0H15a1.292,1.292,0,0,1,1.1.5l1.4,1.7A2.076,2.076,0,0,1,18,3.5V16A2,2,0,0,1,16,18ZM3.5,9,9,14.5,14.5,9H11V7H7V9ZM2.9,1,2.1,2H15.8l-.9-1Z" transform="translate(3571 6067)" fill="#7d7d7d"/>
  </g>
</svg>
