<svg xmlns="http://www.w3.org/2000/svg" width="20" height="20" viewBox="0 0 20 20">
  <g id="Group_1" data-name="Group 1" transform="translate(-3570 -6002)">
    <rect id="access-time" width="20" height="20" transform="translate(3570 6002)" fill="none"/>
    <path id="Shape" d="M10,20A9.988,9.988,0,0,1,2.937,2.937,9.988,9.988,0,1,1,17.062,17.062,9.929,9.929,0,0,1,10,20ZM10,2A7.99,7.99,0,0,0,4.35,15.65a7.99,7.99,0,1,0,11.3-11.3A7.943,7.943,0,0,0,10,2Z" transform="translate(3570 6002)" fill="#7d7d7d"/>
    <path id="Shape-2" data-name="Shape" d="M1.5,5.2,6,7.9,5.2,9.2,0,6V0H1.5Z" transform="translate(3579 6007)" fill="#7d7d7d" fill-rule="evenodd"/>
  </g>
</svg>
